<mxfile host="Electron" modified="2023-05-05T16:18:16.295Z" agent="Mozilla/5.0 (Windows NT 10.0; Win64; x64) AppleWebKit/537.36 (KHTML, like Gecko) draw.io/21.2.1 Chrome/112.0.5615.87 Electron/24.1.2 Safari/537.36" etag="cKYuJQHbvYeF7XJKLlWG" version="21.2.1" type="device" pages="2">
  <diagram name="Page-1" id="ErHbowz8T0tF9KOx9xvh">
    <mxGraphModel dx="1476" dy="400" grid="1" gridSize="10" guides="1" tooltips="1" connect="1" arrows="1" fold="1" page="0" pageScale="1" pageWidth="850" pageHeight="1100" math="0" shadow="0">
      <root>
        <mxCell id="0" />
        <mxCell id="1" parent="0" />
        <mxCell id="OP-uanLnD6wN9fvbGGnW-13" style="edgeStyle=orthogonalEdgeStyle;rounded=0;orthogonalLoop=1;jettySize=auto;html=1;fontFamily=Fira Code;fontSize=10;fontColor=default;" edge="1" parent="1" source="OP-uanLnD6wN9fvbGGnW-11" target="ZiichDDHRgYtZJM0teZT-1">
          <mxGeometry relative="1" as="geometry">
            <mxPoint x="-160" y="390" as="targetPoint" />
          </mxGeometry>
        </mxCell>
        <mxCell id="OP-uanLnD6wN9fvbGGnW-11" value="request hits endpoint function" style="rounded=0;whiteSpace=wrap;html=1;fontFamily=Fira Code;fontSize=10;" vertex="1" parent="1">
          <mxGeometry x="-480" y="370" width="240" height="40" as="geometry" />
        </mxCell>
        <mxCell id="ZiichDDHRgYtZJM0teZT-5" style="edgeStyle=orthogonalEdgeStyle;shape=connector;rounded=0;orthogonalLoop=1;jettySize=auto;html=1;labelBackgroundColor=default;strokeColor=default;fontFamily=Fira Code;fontSize=10;fontColor=default;endArrow=classic;" edge="1" parent="1" source="ZiichDDHRgYtZJM0teZT-1" target="ZiichDDHRgYtZJM0teZT-3">
          <mxGeometry relative="1" as="geometry" />
        </mxCell>
        <mxCell id="ZiichDDHRgYtZJM0teZT-1" value="request is authenticated" style="rounded=0;whiteSpace=wrap;html=1;fontFamily=Fira Code;fontSize=10;" vertex="1" parent="1">
          <mxGeometry x="-480" y="480" width="240" height="40" as="geometry" />
        </mxCell>
        <mxCell id="ZiichDDHRgYtZJM0teZT-7" style="edgeStyle=orthogonalEdgeStyle;shape=connector;rounded=0;orthogonalLoop=1;jettySize=auto;html=1;labelBackgroundColor=default;strokeColor=default;fontFamily=Fira Code;fontSize=10;fontColor=default;endArrow=classic;" edge="1" parent="1" source="ZiichDDHRgYtZJM0teZT-3" target="ZiichDDHRgYtZJM0teZT-6">
          <mxGeometry relative="1" as="geometry" />
        </mxCell>
        <mxCell id="ZiichDDHRgYtZJM0teZT-3" value="control is passed to a Controller" style="rounded=0;whiteSpace=wrap;html=1;fontFamily=Fira Code;fontSize=10;" vertex="1" parent="1">
          <mxGeometry x="-480" y="600" width="240" height="40" as="geometry" />
        </mxCell>
        <mxCell id="ZiichDDHRgYtZJM0teZT-6" value="Controller executes appropriate method, using services" style="rounded=0;whiteSpace=wrap;html=1;fontFamily=Fira Code;fontSize=10;" vertex="1" parent="1">
          <mxGeometry x="-480" y="720" width="240" height="40" as="geometry" />
        </mxCell>
        <mxCell id="ZiichDDHRgYtZJM0teZT-10" style="edgeStyle=orthogonalEdgeStyle;shape=connector;rounded=0;orthogonalLoop=1;jettySize=auto;html=1;labelBackgroundColor=default;strokeColor=default;fontFamily=Fira Code;fontSize=10;fontColor=default;endArrow=classic;" edge="1" parent="1" source="ZiichDDHRgYtZJM0teZT-8" target="ZiichDDHRgYtZJM0teZT-9">
          <mxGeometry relative="1" as="geometry" />
        </mxCell>
        <mxCell id="ZiichDDHRgYtZJM0teZT-8" value="When &lt;u&gt;button&lt;/u&gt; is pressed..." style="rounded=0;whiteSpace=wrap;html=1;fontFamily=Fira Code;fontSize=10;" vertex="1" parent="1">
          <mxGeometry x="-40" y="370" width="240" height="40" as="geometry" />
        </mxCell>
        <mxCell id="ZiichDDHRgYtZJM0teZT-9" value="...unassign user from Person column" style="rounded=0;whiteSpace=wrap;html=1;fontFamily=Fira Code;fontSize=10;" vertex="1" parent="1">
          <mxGeometry x="-40" y="480" width="240" height="40" as="geometry" />
        </mxCell>
        <mxCell id="ZiichDDHRgYtZJM0teZT-11" value="Unassign Person" style="swimlane;fontStyle=1;align=center;verticalAlign=top;childLayout=stackLayout;horizontal=1;startSize=26;horizontalStack=0;resizeParent=1;resizeParentMax=0;resizeLast=0;collapsible=1;marginBottom=0;whiteSpace=wrap;html=1;rounded=0;strokeColor=default;fontFamily=Fira Code;fontSize=10;fontColor=default;fillColor=default;" vertex="1" parent="1">
          <mxGeometry x="230" y="480" width="160" height="78" as="geometry" />
        </mxCell>
        <mxCell id="ZiichDDHRgYtZJM0teZT-12" value="itemId: int" style="text;strokeColor=none;fillColor=none;align=left;verticalAlign=top;spacingLeft=4;spacingRight=4;overflow=hidden;rotatable=0;points=[[0,0.5],[1,0.5]];portConstraint=eastwest;whiteSpace=wrap;html=1;fontSize=10;fontFamily=Fira Code;fontColor=default;" vertex="1" parent="ZiichDDHRgYtZJM0teZT-11">
          <mxGeometry y="26" width="160" height="26" as="geometry" />
        </mxCell>
        <mxCell id="ZiichDDHRgYtZJM0teZT-15" value="columnId: str" style="text;strokeColor=none;fillColor=none;align=left;verticalAlign=top;spacingLeft=4;spacingRight=4;overflow=hidden;rotatable=0;points=[[0,0.5],[1,0.5]];portConstraint=eastwest;whiteSpace=wrap;html=1;fontSize=10;fontFamily=Fira Code;fontColor=default;" vertex="1" parent="ZiichDDHRgYtZJM0teZT-11">
          <mxGeometry y="52" width="160" height="26" as="geometry" />
        </mxCell>
      </root>
    </mxGraphModel>
  </diagram>
  <diagram id="OIqw6ta5-Ems0p-rgSqh" name="Page-2">
    <mxGraphModel dx="1747" dy="560" grid="1" gridSize="10" guides="1" tooltips="1" connect="1" arrows="1" fold="1" page="0" pageScale="1" pageWidth="850" pageHeight="1100" math="0" shadow="0">
      <root>
        <mxCell id="0" />
        <mxCell id="1" parent="0" />
        <mxCell id="7qEOh4sPNsHpD3VL2-St-1" value="main" style="shape=umlLifeline;perimeter=lifelinePerimeter;whiteSpace=wrap;html=1;container=1;dropTarget=0;collapsible=0;recursiveResize=0;outlineConnect=0;portConstraint=eastwest;newEdgeStyle={&quot;edgeStyle&quot;:&quot;elbowEdgeStyle&quot;,&quot;elbow&quot;:&quot;vertical&quot;,&quot;curved&quot;:0,&quot;rounded&quot;:0};rounded=0;strokeColor=default;fontFamily=Fira Code;fontSize=8;fontColor=default;fillColor=default;snapToPoint=0;" vertex="1" parent="1">
          <mxGeometry x="-240" width="100" height="640" as="geometry" />
        </mxCell>
        <mxCell id="7qEOh4sPNsHpD3VL2-St-60" value="" style="html=1;points=[];perimeter=orthogonalPerimeter;outlineConnect=0;targetShapes=umlLifeline;portConstraint=eastwest;newEdgeStyle={&quot;edgeStyle&quot;:&quot;elbowEdgeStyle&quot;,&quot;elbow&quot;:&quot;vertical&quot;,&quot;curved&quot;:0,&quot;rounded&quot;:0};rounded=0;strokeColor=default;fontFamily=Fira Code;fontSize=6;fontColor=default;fillColor=default;" vertex="1" parent="7qEOh4sPNsHpD3VL2-St-1">
          <mxGeometry x="45" y="70" width="10" height="560" as="geometry" />
        </mxCell>
        <mxCell id="7qEOh4sPNsHpD3VL2-St-6" value="authentication" style="shape=umlLifeline;perimeter=lifelinePerimeter;whiteSpace=wrap;html=1;container=1;dropTarget=0;collapsible=0;recursiveResize=0;outlineConnect=0;portConstraint=eastwest;newEdgeStyle={&quot;edgeStyle&quot;:&quot;elbowEdgeStyle&quot;,&quot;elbow&quot;:&quot;vertical&quot;,&quot;curved&quot;:0,&quot;rounded&quot;:0};rounded=0;strokeColor=default;fontFamily=Fira Code;fontSize=8;fontColor=default;fillColor=default;snapToPoint=0;" vertex="1" parent="1">
          <mxGeometry x="-80" width="100" height="130" as="geometry" />
        </mxCell>
        <mxCell id="7qEOh4sPNsHpD3VL2-St-7" value="" style="html=1;points=[];perimeter=orthogonalPerimeter;outlineConnect=0;targetShapes=umlLifeline;portConstraint=eastwest;newEdgeStyle={&quot;edgeStyle&quot;:&quot;elbowEdgeStyle&quot;,&quot;elbow&quot;:&quot;vertical&quot;,&quot;curved&quot;:0,&quot;rounded&quot;:0};rounded=0;strokeColor=default;fontFamily=Fira Code;fontSize=8;fontColor=default;fillColor=default;" vertex="1" parent="7qEOh4sPNsHpD3VL2-St-6">
          <mxGeometry x="45" y="80" width="10" height="20" as="geometry" />
        </mxCell>
        <mxCell id="7qEOh4sPNsHpD3VL2-St-9" value="authenticate(request)" style="html=1;verticalAlign=bottom;endArrow=block;edgeStyle=elbowEdgeStyle;elbow=vertical;curved=0;rounded=0;fontFamily=Fira Code;fontSize=6;fontColor=default;align=left;" edge="1" parent="1" source="7qEOh4sPNsHpD3VL2-St-60" target="7qEOh4sPNsHpD3VL2-St-7">
          <mxGeometry x="-0.8" width="80" relative="1" as="geometry">
            <mxPoint x="-185" y="100" as="sourcePoint" />
            <mxPoint x="-90" y="90" as="targetPoint" />
            <Array as="points">
              <mxPoint x="-130" y="100" />
              <mxPoint x="-60" y="80" />
              <mxPoint x="-80" y="90" />
            </Array>
            <mxPoint as="offset" />
          </mxGeometry>
        </mxCell>
        <mxCell id="7qEOh4sPNsHpD3VL2-St-11" value="auth: AuthResponse" style="html=1;verticalAlign=bottom;endArrow=open;dashed=1;endSize=8;edgeStyle=elbowEdgeStyle;elbow=vertical;curved=0;rounded=0;labelBackgroundColor=default;strokeColor=default;fontFamily=Fira Code;fontSize=6;fontColor=default;shape=connector;align=right;" edge="1" parent="1" source="7qEOh4sPNsHpD3VL2-St-7" target="7qEOh4sPNsHpD3VL2-St-60">
          <mxGeometry x="-0.8" relative="1" as="geometry">
            <mxPoint x="-80" y="100" as="sourcePoint" />
            <mxPoint x="-185" y="130" as="targetPoint" />
            <Array as="points">
              <mxPoint x="-30" y="130" />
            </Array>
            <mxPoint as="offset" />
          </mxGeometry>
        </mxCell>
        <mxCell id="7qEOh4sPNsHpD3VL2-St-12" value="controller" style="shape=umlLifeline;perimeter=lifelinePerimeter;whiteSpace=wrap;html=1;container=1;dropTarget=0;collapsible=0;recursiveResize=0;outlineConnect=0;portConstraint=eastwest;newEdgeStyle={&quot;edgeStyle&quot;:&quot;elbowEdgeStyle&quot;,&quot;elbow&quot;:&quot;vertical&quot;,&quot;curved&quot;:0,&quot;rounded&quot;:0};rounded=0;strokeColor=default;fontFamily=Fira Code;fontSize=8;fontColor=default;fillColor=default;snapToPoint=0;" vertex="1" parent="1">
          <mxGeometry x="70" width="100" height="640" as="geometry" />
        </mxCell>
        <mxCell id="7qEOh4sPNsHpD3VL2-St-13" value="" style="html=1;points=[];perimeter=orthogonalPerimeter;outlineConnect=0;targetShapes=umlLifeline;portConstraint=eastwest;newEdgeStyle={&quot;edgeStyle&quot;:&quot;elbowEdgeStyle&quot;,&quot;elbow&quot;:&quot;vertical&quot;,&quot;curved&quot;:0,&quot;rounded&quot;:0};rounded=0;strokeColor=default;fontFamily=Fira Code;fontSize=8;fontColor=default;fillColor=default;" vertex="1" parent="7qEOh4sPNsHpD3VL2-St-12">
          <mxGeometry x="45" y="160" width="10" height="440" as="geometry" />
        </mxCell>
        <mxCell id="7qEOh4sPNsHpD3VL2-St-17" value="" style="html=1;points=[];perimeter=orthogonalPerimeter;outlineConnect=0;targetShapes=umlLifeline;portConstraint=eastwest;newEdgeStyle={&quot;edgeStyle&quot;:&quot;elbowEdgeStyle&quot;,&quot;elbow&quot;:&quot;vertical&quot;,&quot;curved&quot;:0,&quot;rounded&quot;:0};rounded=0;strokeColor=default;fontFamily=Fira Code;fontSize=8;fontColor=default;fillColor=default;" vertex="1" parent="7qEOh4sPNsHpD3VL2-St-12">
          <mxGeometry x="50" y="180" width="10" height="25" as="geometry" />
        </mxCell>
        <mxCell id="7qEOh4sPNsHpD3VL2-St-18" value="token: check_webtoken(auth)" style="html=1;align=left;spacingLeft=2;endArrow=block;rounded=0;edgeStyle=orthogonalEdgeStyle;curved=0;rounded=0;labelBackgroundColor=default;strokeColor=default;fontFamily=Fira Code;fontSize=6;fontColor=default;shape=connector;elbow=vertical;" edge="1" target="7qEOh4sPNsHpD3VL2-St-17" parent="7qEOh4sPNsHpD3VL2-St-12">
          <mxGeometry x="-0.0024" relative="1" as="geometry">
            <mxPoint x="55" y="165" as="sourcePoint" />
            <Array as="points">
              <mxPoint x="85" y="165" />
              <mxPoint x="85" y="190" />
            </Array>
            <mxPoint as="offset" />
          </mxGeometry>
        </mxCell>
        <mxCell id="7qEOh4sPNsHpD3VL2-St-22" value="" style="html=1;points=[];perimeter=orthogonalPerimeter;outlineConnect=0;targetShapes=umlLifeline;portConstraint=eastwest;newEdgeStyle={&quot;edgeStyle&quot;:&quot;elbowEdgeStyle&quot;,&quot;elbow&quot;:&quot;vertical&quot;,&quot;curved&quot;:0,&quot;rounded&quot;:0};rounded=0;strokeColor=default;fontFamily=Fira Code;fontSize=8;fontColor=default;fillColor=default;" vertex="1" parent="7qEOh4sPNsHpD3VL2-St-12">
          <mxGeometry x="50" y="240" width="10" height="240" as="geometry" />
        </mxCell>
        <mxCell id="7qEOh4sPNsHpD3VL2-St-23" value="params: ServiceParams(request, token)&lt;br style=&quot;font-size: 6px;&quot;&gt;succeeded: await execute_on_button_pressed(params)" style="html=1;align=left;spacingLeft=2;endArrow=block;rounded=0;edgeStyle=orthogonalEdgeStyle;curved=0;rounded=0;labelBackgroundColor=default;strokeColor=default;fontFamily=Fira Code;fontSize=6;fontColor=default;shape=connector;elbow=vertical;" edge="1" target="7qEOh4sPNsHpD3VL2-St-22" parent="7qEOh4sPNsHpD3VL2-St-12">
          <mxGeometry relative="1" as="geometry">
            <mxPoint x="55" y="220" as="sourcePoint" />
            <Array as="points">
              <mxPoint x="85" y="250" />
            </Array>
          </mxGeometry>
        </mxCell>
        <mxCell id="7qEOh4sPNsHpD3VL2-St-14" value="await execute(request, auth, method: &#39;on_button_pressed&#39;)" style="html=1;verticalAlign=bottom;endArrow=block;edgeStyle=elbowEdgeStyle;elbow=vertical;curved=0;rounded=0;labelBackgroundColor=default;strokeColor=default;fontFamily=Fira Code;fontSize=6;fontColor=default;shape=connector;align=left;" edge="1" parent="1" target="7qEOh4sPNsHpD3VL2-St-13">
          <mxGeometry x="-0.9" width="80" relative="1" as="geometry">
            <mxPoint x="-185" y="160" as="sourcePoint" />
            <mxPoint x="-20" y="140" as="targetPoint" />
            <Array as="points">
              <mxPoint x="-140" y="160" />
              <mxPoint x="60" y="140" />
              <mxPoint x="40" y="130" />
              <mxPoint x="40" y="140" />
              <mxPoint x="10" y="120" />
            </Array>
            <mxPoint as="offset" />
          </mxGeometry>
        </mxCell>
        <mxCell id="7qEOh4sPNsHpD3VL2-St-19" value="response: ExecResponse(method, succeeded)" style="html=1;verticalAlign=bottom;endArrow=open;dashed=1;endSize=8;edgeStyle=elbowEdgeStyle;elbow=vertical;curved=0;rounded=0;labelBackgroundColor=default;strokeColor=default;fontFamily=Fira Code;fontSize=6;fontColor=default;shape=connector;align=right;" edge="1" parent="1" source="7qEOh4sPNsHpD3VL2-St-13" target="7qEOh4sPNsHpD3VL2-St-60">
          <mxGeometry x="-0.9" relative="1" as="geometry">
            <mxPoint x="90" y="210" as="sourcePoint" />
            <mxPoint x="-160" y="600" as="targetPoint" />
            <Array as="points">
              <mxPoint x="100" y="600" />
              <mxPoint y="580" />
              <mxPoint x="-80" y="710" />
              <mxPoint x="-40" y="570" />
              <mxPoint x="-40" y="360" />
              <mxPoint x="40" y="260" />
            </Array>
            <mxPoint as="offset" />
          </mxGeometry>
        </mxCell>
        <mxCell id="7qEOh4sPNsHpD3VL2-St-25" value="services" style="shape=umlLifeline;perimeter=lifelinePerimeter;whiteSpace=wrap;html=1;container=1;dropTarget=0;collapsible=0;recursiveResize=0;outlineConnect=0;portConstraint=eastwest;newEdgeStyle={&quot;edgeStyle&quot;:&quot;elbowEdgeStyle&quot;,&quot;elbow&quot;:&quot;vertical&quot;,&quot;curved&quot;:0,&quot;rounded&quot;:0};rounded=0;strokeColor=default;fontFamily=Fira Code;fontSize=8;fontColor=default;fillColor=default;" vertex="1" parent="1">
          <mxGeometry x="430" width="100" height="640" as="geometry" />
        </mxCell>
        <mxCell id="7qEOh4sPNsHpD3VL2-St-26" value="" style="html=1;points=[];perimeter=orthogonalPerimeter;outlineConnect=0;targetShapes=umlLifeline;portConstraint=eastwest;newEdgeStyle={&quot;edgeStyle&quot;:&quot;elbowEdgeStyle&quot;,&quot;elbow&quot;:&quot;vertical&quot;,&quot;curved&quot;:0,&quot;rounded&quot;:0};rounded=0;strokeColor=default;fontFamily=Fira Code;fontSize=8;fontColor=default;fillColor=default;" vertex="1" parent="7qEOh4sPNsHpD3VL2-St-25">
          <mxGeometry x="45" y="280" width="10" height="200" as="geometry" />
        </mxCell>
        <mxCell id="7qEOh4sPNsHpD3VL2-St-43" value="" style="html=1;points=[];perimeter=orthogonalPerimeter;outlineConnect=0;targetShapes=umlLifeline;portConstraint=eastwest;newEdgeStyle={&quot;edgeStyle&quot;:&quot;elbowEdgeStyle&quot;,&quot;elbow&quot;:&quot;vertical&quot;,&quot;curved&quot;:0,&quot;rounded&quot;:0};rounded=0;strokeColor=default;fontFamily=Fira Code;fontSize=6;fontColor=default;fillColor=default;" vertex="1" parent="7qEOh4sPNsHpD3VL2-St-25">
          <mxGeometry x="50" y="310" width="10" height="30" as="geometry" />
        </mxCell>
        <mxCell id="7qEOh4sPNsHpD3VL2-St-44" value="query: load_query(&#39;get_column_value&#39;)" style="html=1;align=left;spacingLeft=2;endArrow=block;rounded=0;edgeStyle=orthogonalEdgeStyle;curved=0;rounded=0;labelBackgroundColor=default;strokeColor=default;fontFamily=Fira Code;fontSize=6;fontColor=default;endSize=8;shape=connector;elbow=vertical;" edge="1" target="7qEOh4sPNsHpD3VL2-St-43" parent="7qEOh4sPNsHpD3VL2-St-25">
          <mxGeometry relative="1" as="geometry">
            <mxPoint x="55" y="290" as="sourcePoint" />
            <Array as="points">
              <mxPoint x="85" y="320" />
            </Array>
          </mxGeometry>
        </mxCell>
        <mxCell id="7qEOh4sPNsHpD3VL2-St-28" value="column_value: get_column_value(token, item_id, column_id: &#39;person&#39;)" style="html=1;verticalAlign=bottom;endArrow=block;edgeStyle=elbowEdgeStyle;elbow=vertical;curved=0;rounded=0;labelBackgroundColor=default;strokeColor=#C73500;fontFamily=Fira Code;fontSize=6;fontColor=default;shape=connector;align=left;fillColor=#fa6800;" edge="1" parent="1" source="7qEOh4sPNsHpD3VL2-St-22" target="7qEOh4sPNsHpD3VL2-St-26">
          <mxGeometry x="-0.9158" width="80" relative="1" as="geometry">
            <mxPoint x="160" y="290" as="sourcePoint" />
            <mxPoint x="240" y="290" as="targetPoint" />
            <Array as="points">
              <mxPoint x="270" y="280" />
            </Array>
            <mxPoint as="offset" />
          </mxGeometry>
        </mxCell>
        <mxCell id="7qEOh4sPNsHpD3VL2-St-33" value="payload: (await params[&#39;request&#39;].json())[&#39;payload&#39;]&lt;br&gt;&lt;br&gt;token: params[&#39;token&#39;]&lt;br&gt;&lt;br&gt;fields: payload[&#39;inputFields&#39;]&lt;br&gt;&lt;br&gt;column_fields: { &lt;br&gt;&amp;nbsp; &amp;nbsp; &#39;board_id&#39;: fields[&#39;boardId&#39;],&lt;br&gt;&amp;nbsp; &amp;nbsp; &#39;item_id&#39;: fields[&#39;itemId&#39;],&lt;br&gt;}" style="shape=note2;boundedLbl=1;whiteSpace=wrap;html=1;size=10;verticalAlign=top;align=left;rounded=0;strokeColor=default;fontFamily=Fira Code;fontSize=6;fontColor=default;fillColor=default;" vertex="1" parent="1">
          <mxGeometry x="140" y="290" width="210" height="100" as="geometry" />
        </mxCell>
        <mxCell id="7qEOh4sPNsHpD3VL2-St-35" value="column_value: ServiceResult(succeeded, data: json.loads(value[&#39;value&#39;]))" style="html=1;verticalAlign=bottom;endArrow=open;dashed=1;endSize=8;edgeStyle=elbowEdgeStyle;elbow=vertical;curved=0;rounded=0;labelBackgroundColor=default;strokeColor=default;fontFamily=Fira Code;fontSize=6;fontColor=default;shape=connector;align=right;" edge="1" parent="1" source="7qEOh4sPNsHpD3VL2-St-26" target="7qEOh4sPNsHpD3VL2-St-22">
          <mxGeometry x="-0.913" relative="1" as="geometry">
            <mxPoint x="230" y="420" as="sourcePoint" />
            <mxPoint x="160" y="480" as="targetPoint" />
            <Array as="points">
              <mxPoint x="350" y="480" />
              <mxPoint x="230" y="570" />
              <mxPoint x="290" y="500" />
              <mxPoint x="370" y="420" />
            </Array>
            <mxPoint as="offset" />
          </mxGeometry>
        </mxCell>
        <mxCell id="7qEOh4sPNsHpD3VL2-St-36" value="query ($itemId: [Int], $columnId: [String] {&lt;br&gt;&amp;nbsp; items (ids: $itemId) {&lt;br&gt;&amp;nbsp; &amp;nbsp; column_values (ids: $columnId) {&lt;br&gt;&amp;nbsp; &amp;nbsp; &amp;nbsp; value&lt;br&gt;&amp;nbsp; &amp;nbsp; }&lt;br&gt;&amp;nbsp; }&lt;br&gt;}" style="shape=note2;boundedLbl=1;whiteSpace=wrap;html=1;size=10;verticalAlign=top;align=left;rounded=0;strokeColor=default;fontFamily=Fira Code;fontSize=6;fontColor=default;fillColor=default;" vertex="1" parent="1">
          <mxGeometry x="530" y="310" width="170" height="70" as="geometry" />
        </mxCell>
        <mxCell id="7qEOh4sPNsHpD3VL2-St-37" value="monday.com" style="shape=umlLifeline;perimeter=lifelinePerimeter;whiteSpace=wrap;html=1;container=1;dropTarget=0;collapsible=0;recursiveResize=0;outlineConnect=0;portConstraint=eastwest;newEdgeStyle={&quot;edgeStyle&quot;:&quot;elbowEdgeStyle&quot;,&quot;elbow&quot;:&quot;vertical&quot;,&quot;curved&quot;:0,&quot;rounded&quot;:0};rounded=0;strokeColor=default;fontFamily=Fira Code;fontSize=8;fontColor=default;fillColor=default;snapToPoint=0;" vertex="1" parent="1">
          <mxGeometry x="-460" width="100" height="640" as="geometry" />
        </mxCell>
        <mxCell id="7qEOh4sPNsHpD3VL2-St-59" value="" style="html=1;points=[];perimeter=orthogonalPerimeter;outlineConnect=0;targetShapes=umlLifeline;portConstraint=eastwest;newEdgeStyle={&quot;edgeStyle&quot;:&quot;elbowEdgeStyle&quot;,&quot;elbow&quot;:&quot;vertical&quot;,&quot;curved&quot;:0,&quot;rounded&quot;:0};rounded=0;strokeColor=default;fontFamily=Fira Code;fontSize=6;fontColor=default;fillColor=default;" vertex="1" parent="7qEOh4sPNsHpD3VL2-St-37">
          <mxGeometry x="45" y="70" width="10" height="560" as="geometry" />
        </mxCell>
        <mxCell id="7qEOh4sPNsHpD3VL2-St-41" value="POST /monday/execute/on-button-pressed" style="html=1;verticalAlign=bottom;endArrow=block;edgeStyle=elbowEdgeStyle;elbow=vertical;curved=0;rounded=0;dashed=1;labelBackgroundColor=default;strokeColor=default;fontFamily=Fira Code;fontSize=6;fontColor=default;endSize=8;shape=connector;align=left;" edge="1" parent="1" source="7qEOh4sPNsHpD3VL2-St-59" target="7qEOh4sPNsHpD3VL2-St-60">
          <mxGeometry x="-0.8882" width="80" relative="1" as="geometry">
            <mxPoint x="-540" y="110" as="sourcePoint" />
            <mxPoint x="-195" y="70" as="targetPoint" />
            <Array as="points">
              <mxPoint x="-310" y="70" />
            </Array>
            <mxPoint as="offset" />
          </mxGeometry>
        </mxCell>
        <mxCell id="7qEOh4sPNsHpD3VL2-St-42" value="&lt;span style=&quot;color: rgb(240, 240, 240); font-family: &amp;quot;Fira Code&amp;quot;; font-size: 6px; font-style: normal; font-variant-ligatures: normal; font-variant-caps: normal; font-weight: 400; letter-spacing: normal; orphans: 2; text-indent: 0px; text-transform: none; widows: 2; word-spacing: 0px; -webkit-text-stroke-width: 0px; background-color: rgb(24, 20, 29); text-decoration-thickness: initial; text-decoration-style: initial; text-decoration-color: initial; float: none; display: inline !important;&quot;&gt;monday.api(query, **{ &#39;itemId&#39;: item_id, &#39;columnId&#39;: column_id })&lt;/span&gt;" style="html=1;verticalAlign=bottom;endArrow=block;edgeStyle=elbowEdgeStyle;elbow=vertical;curved=0;rounded=0;labelBackgroundColor=default;strokeColor=default;fontFamily=Fira Code;fontSize=6;fontColor=default;endSize=8;shape=connector;align=left;labelPosition=center;verticalLabelPosition=middle;" edge="1" parent="1" source="7qEOh4sPNsHpD3VL2-St-26" target="7qEOh4sPNsHpD3VL2-St-47">
          <mxGeometry x="-0.925" width="80" relative="1" as="geometry">
            <mxPoint x="220" y="430" as="sourcePoint" />
            <mxPoint x="795" y="410" as="targetPoint" />
            <Array as="points">
              <mxPoint x="610" y="410" />
            </Array>
            <mxPoint as="offset" />
          </mxGeometry>
        </mxCell>
        <mxCell id="7qEOh4sPNsHpD3VL2-St-46" value="MondayClient" style="shape=umlLifeline;perimeter=lifelinePerimeter;whiteSpace=wrap;html=1;container=1;dropTarget=0;collapsible=0;recursiveResize=0;outlineConnect=0;portConstraint=eastwest;newEdgeStyle={&quot;edgeStyle&quot;:&quot;elbowEdgeStyle&quot;,&quot;elbow&quot;:&quot;vertical&quot;,&quot;curved&quot;:0,&quot;rounded&quot;:0};rounded=0;strokeColor=default;fontFamily=Fira Code;fontSize=8;fontColor=default;fillColor=default;" vertex="1" parent="1">
          <mxGeometry x="720" width="100" height="640" as="geometry" />
        </mxCell>
        <mxCell id="7qEOh4sPNsHpD3VL2-St-47" value="" style="html=1;points=[];perimeter=orthogonalPerimeter;outlineConnect=0;targetShapes=umlLifeline;portConstraint=eastwest;newEdgeStyle={&quot;edgeStyle&quot;:&quot;elbowEdgeStyle&quot;,&quot;elbow&quot;:&quot;vertical&quot;,&quot;curved&quot;:0,&quot;rounded&quot;:0};rounded=0;strokeColor=default;fontFamily=Fira Code;fontSize=6;fontColor=default;fillColor=default;" vertex="1" parent="7qEOh4sPNsHpD3VL2-St-46">
          <mxGeometry x="45" y="400" width="10" height="30" as="geometry" />
        </mxCell>
        <mxCell id="7qEOh4sPNsHpD3VL2-St-49" value="Response" style="html=1;verticalAlign=bottom;endArrow=open;dashed=1;endSize=8;edgeStyle=elbowEdgeStyle;elbow=vertical;curved=0;rounded=0;labelBackgroundColor=default;strokeColor=default;fontFamily=Fira Code;fontSize=6;fontColor=default;shape=connector;align=right;" edge="1" parent="1" target="7qEOh4sPNsHpD3VL2-St-26">
          <mxGeometry x="-0.9032" relative="1" as="geometry">
            <mxPoint x="795" y="450" as="sourcePoint" />
            <mxPoint x="620" y="450" as="targetPoint" />
            <Array as="points">
              <mxPoint x="660" y="450" />
            </Array>
            <mxPoint as="offset" />
          </mxGeometry>
        </mxCell>
        <mxCell id="7qEOh4sPNsHpD3VL2-St-50" value="data: QueryData(response.json()[&#39;data&#39;])&lt;br&gt;&lt;br&gt;item: ColumnData(data[&#39;items&#39;].pop())&lt;br&gt;&lt;br&gt;value: ValueData(items[&#39;column_values&#39;].pop())" style="shape=note2;boundedLbl=1;whiteSpace=wrap;html=1;size=10;verticalAlign=top;align=left;rounded=0;strokeColor=default;fontFamily=Fira Code;fontSize=6;fontColor=default;fillColor=default;" vertex="1" parent="1">
          <mxGeometry x="600" y="460" width="190" height="60" as="geometry" />
        </mxCell>
        <mxCell id="7qEOh4sPNsHpD3VL2-St-52" value="await delete_user(column_fields[&#39;item_id&#39;], person_ids)" style="html=1;verticalAlign=bottom;endArrow=block;edgeStyle=elbowEdgeStyle;elbow=vertical;curved=0;rounded=0;labelBackgroundColor=default;strokeColor=#C73500;fontFamily=Fira Code;fontSize=6;fontColor=default;endSize=8;shape=connector;align=left;fillColor=#fa6800;" edge="1" parent="1" source="7qEOh4sPNsHpD3VL2-St-13" target="7qEOh4sPNsHpD3VL2-St-25">
          <mxGeometry x="-0.9032" width="80" relative="1" as="geometry">
            <mxPoint x="160" y="540" as="sourcePoint" />
            <mxPoint x="460" y="510" as="targetPoint" />
            <Array as="points">
              <mxPoint x="320" y="510" />
            </Array>
            <mxPoint as="offset" />
          </mxGeometry>
        </mxCell>
        <mxCell id="7qEOh4sPNsHpD3VL2-St-54" value="await unassign_person(token, column_fields[&#39;column_id&#39;], column_fields[&#39;item_id&#39;]" style="html=1;verticalAlign=bottom;endArrow=block;edgeStyle=elbowEdgeStyle;elbow=vertical;curved=0;rounded=0;labelBackgroundColor=default;strokeColor=#C73500;fontFamily=Fira Code;fontSize=6;fontColor=default;endSize=8;shape=connector;align=left;fillColor=#fa6800;" edge="1" parent="1" source="7qEOh4sPNsHpD3VL2-St-13" target="7qEOh4sPNsHpD3VL2-St-25">
          <mxGeometry x="-0.9033" width="80" relative="1" as="geometry">
            <mxPoint x="135" y="540" as="sourcePoint" />
            <mxPoint x="460" y="540" as="targetPoint" />
            <Array as="points">
              <mxPoint x="330" y="540" />
            </Array>
            <mxPoint as="offset" />
          </mxGeometry>
        </mxCell>
        <mxCell id="7qEOh4sPNsHpD3VL2-St-55" value="succeeded: True" style="html=1;verticalAlign=bottom;endArrow=open;dashed=1;endSize=8;edgeStyle=elbowEdgeStyle;elbow=vertical;curved=0;rounded=0;labelBackgroundColor=default;strokeColor=default;fontFamily=Fira Code;fontSize=6;fontColor=default;shape=connector;align=right;" edge="1" parent="1" source="7qEOh4sPNsHpD3VL2-St-25" target="7qEOh4sPNsHpD3VL2-St-13">
          <mxGeometry x="-0.9464" relative="1" as="geometry">
            <mxPoint x="460" y="570" as="sourcePoint" />
            <mxPoint x="280" y="580" as="targetPoint" />
            <Array as="points">
              <mxPoint x="250" y="570" />
              <mxPoint x="250" y="560" />
            </Array>
            <mxPoint as="offset" />
          </mxGeometry>
        </mxCell>
        <mxCell id="7qEOh4sPNsHpD3VL2-St-56" value="response" style="html=1;verticalAlign=bottom;endArrow=open;dashed=1;endSize=8;edgeStyle=elbowEdgeStyle;elbow=vertical;curved=0;rounded=0;labelBackgroundColor=default;strokeColor=default;fontFamily=Fira Code;fontSize=6;fontColor=default;shape=connector;align=right;" edge="1" parent="1" source="7qEOh4sPNsHpD3VL2-St-60" target="7qEOh4sPNsHpD3VL2-St-59">
          <mxGeometry x="-0.8603" relative="1" as="geometry">
            <mxPoint x="-195" y="610" as="sourcePoint" />
            <mxPoint x="-390" y="630" as="targetPoint" />
            <Array as="points">
              <mxPoint x="-270" y="630" />
              <mxPoint x="-250" y="610" />
              <mxPoint x="-300" y="630" />
              <mxPoint x="-320" y="610" />
              <mxPoint x="-380" y="610" />
            </Array>
            <mxPoint as="offset" />
          </mxGeometry>
        </mxCell>
      </root>
    </mxGraphModel>
  </diagram>
</mxfile>
